{"title":"Dila - NubilesPorn - Caught Up In The Moment","uid":9830987,"size":262030892,"categoryP":"porn","categoryS":"movie_clips","magnet":"?xt=urn:btih:ac8653840deb17a776f24cd6db0f3c0223bf4af9&amp;dn=Dila+-+NubilesPorn+-+Caught+Up+In+The+Moment&amp;tr=udp%3A%2F%2Ftracker.openbittorrent.com%3A80&amp;tr=udp%3A%2F%2Fopen.demonii.com%3A1337&amp;tr=udp%3A%2F%2Ftracker.coppersurfer.tk%3A6969&amp;tr=udp%3A%2F%2Fexodus.desync.com%3A6969","seeders":4,"leechers":0,"uploader":"athklym","files":-1,"time":1395839882,"description":" &lt;a href=&quot;http://bayimg.com/jAMpHaAFM&quot; rel=&quot;nofollow&quot; target=&quot;_NEW&quot;&gt;http://bayimg.com/jAMpHaAFM&lt;/a&gt;\nRussian babe Dila can't wait to seduce her man with her perfect pale body. After getting things started with an enthusiastic blowjob, Dila climbs aboard her beau's lap and sinks down on his big hard dick to kick off a raunchy fuck fest. As things heat up the brunette babe shows off her flexibility, linking her ankles behind her head to open her cock hungry bald twat to be filled and fucked by her man until she is screaming in ecstasy.\n\nDila_NubilesPorn_Caught_Up_In_The_Moment.mp4\nFormat                                   : MPEG-4\nFormat profile                           : Base Media\nCodec ID                                 : isom\nFile size                                : 250 MiB\nDuration                                 : 20mn 52s\nOverall bit rate mode                    : Variable\nOverall bit rate                         : 1 674 Kbps\nWriting application                      : Lavf54.25.104\n\nVideo\nID                                       : 1\nFormat                                   : AVC\nFormat/Info                              : Advanced Video Codec\nFormat profile                           : &lt;a class=&quot;__cf_email__&quot; href=&quot;/cdn-cgi/l/email-protection&quot; data-cfemail=&quot;1e537f77705e522d302f&quot;&gt;[email&amp;#160;protected]&lt;/a&gt;&lt;script cf-hash='f9e31' type=&quot;text/javascript&quot;&gt;\n/* &lt;![CDATA[ */!function(){try{var t=&quot;currentScript&quot;in document?document.currentScript:function(){for(var t=document.getElementsByTagName(&quot;script&quot;),e=t.length;e--;)if(t[e].getAttribute(&quot;cf-hash&quot;))return t[e]}();if(t&amp;&amp;t.previousSibling){var e,r,n,i,c=t.previousSibling,a=c.getAttribute(&quot;data-cfemail&quot;);if(a){for(e=&quot;&quot;,r=parseInt(a.substr(0,2),16),n=2;a.length-n;n+=2)i=parseInt(a.substr(n,2),16)^r,e+=String.fromCharCode(i);e=document.createTextNode(e),c.parentNode.replaceChild(e,c)}}}catch(u){}}();/* ]]&gt; */&lt;/script&gt;\nFormat settings, CABAC                   : Yes\nFormat settings, ReFrames                : 4 frames\nCodec ID                                 : avc1\nCodec ID/Info                            : Advanced Video Coding\nDuration                                 : 20mn 52s\nBit rate                                 : 1 556 Kbps\nWidth                                    : 960 pixels\nHeight                                   : 540 pixels\nDisplay aspect ratio                     : 16:9\nFrame rate mode                          : Constant\nFrame rate                               : 29.970 fps\nColor space                              : YUV\nChroma subsampling                       : 4:2:0\nBit depth                                : 8 bits\nScan type                                : Progressive\nBits/(Pixel*Frame)                       : 0.100\nStream size                              : 232 MiB (93%)\nWriting library                          : x264 core 125 r2208 d9d2288\nEncoding settings                        : cabac=1 / ref=2 / deblock=1:-1:-1 / analyse=0x1:0x111 / me=umh / subme=8 / psy=1 / psy_rd=1.00:0.15 / mixed_ref=1 / me_range=16 / chroma_me=1 / trellis=1 / 8x8dct=0 / cqm=0 / deadzone=21,11 / fast_pskip=1 / chroma_qp_offset=-3 / threads=2 / lookahead_threads=1 / sliced_threads=0 / nr=0 / decimate=1 / interlaced=0 / bluray_compat=0 / constrained_intra=0 / bframes=3 / b_pyramid=2 / b_adapt=2 / b_bias=0 / direct=3 / weightb=1 / open_gop=0 / weightp=0 / keyint=250 / keyint_min=25 / scenecut=40 / intra_refresh=0 / rc_lookahead=50 / rc=crf / mbtree=1 / crf=19.0 / qcomp=0.60 / qpmin=0 / qpmax=69 / qpstep=4 / ip_ratio=1.40 / aq=1:1.00\nLanguage                                 : English\n\nAudio\nID                                       : 2\nFormat                                   : AAC\nFormat/Info                              : Advanced Audio Codec\nFormat profile                           : LC\nCodec ID                                 : 40\nDuration                                 : 20mn 52s\nDuration_LastFrame                       : -6ms\nBit rate mode                            : Variable\nBit rate                                 : 109 Kbps\nMaximum bit rate                         : 128 Kbps\nChannel count                            : 2 channels\nChannel positions                        : Front: L R\nSampling rate                            : 44.1 KHz\nCompression mode                         : Lossy\nStream size                              : 16.3 MiB (7%)\nLanguage                                 : English\n\n","torrent":{"xt":"urn:btih:ac8653840deb17a776f24cd6db0f3c0223bf4af9","amp;dn":"Dila+-+NubilesPorn+-+Caught+Up+In+The+Moment","amp;tr":["udp%3A%2F%2Ftracker.openbittorrent.com%3A80","udp%3A%2F%2Fopen.demonii.com%3A1337","udp%3A%2F%2Ftracker.coppersurfer.tk%3A6969","udp%3A%2F%2Fexodus.desync.com%3A6969"],"infoHash":"ac8653840deb17a776f24cd6db0f3c0223bf4af9","infoHashBuffer":{"type":"Buffer","data":[172,134,83,132,13,235,23,167,118,242,76,214,219,15,60,2,35,191,74,249]},"announce":[],"urlList":[]}}